<svg width="126" height="13" viewBox="0 0 126 13" fill="none" xmlns="http://www.w3.org/2000/svg">
<g id="Group 27">
<path id="Star 2" d="M7 0.454409L8.43001 4.54362L8.46515 4.64411H8.5716H13.1671L9.45897 7.1473L9.36314 7.21199L9.40131 7.32114L10.8236 11.3884L7.08393 8.8639L7 8.80724L6.91607 8.8639L3.17636 11.3884L4.59869 7.32114L4.63686 7.21199L4.54103 7.1473L0.832903 4.64411H5.4284H5.53485L5.56999 4.54362L7 0.454409Z" fill="#FCFF5C" stroke="#E4E74F" stroke-width="0.3"/>
<path id="Star 3" d="M119 0.454409L120.43 4.54362L120.465 4.64411H120.572H125.167L121.459 7.1473L121.363 7.21199L121.401 7.32114L122.824 11.3884L119.084 8.8639L119 8.80724L118.916 8.8639L115.176 11.3884L116.599 7.32114L116.637 7.21199L116.541 7.1473L112.833 4.64411H117.428H117.535L117.57 4.54362L119 0.454409Z" fill="#FFFCFC" stroke="#E4E74F" stroke-width="0.3"/>
<path id="Star 4" d="M91 0.454409L92.43 4.54362L92.4651 4.64411H92.5716H97.1671L93.459 7.1473L93.3631 7.21199L93.4013 7.32114L94.8236 11.3884L91.0839 8.8639L91 8.80724L90.9161 8.8639L87.1764 11.3884L88.5987 7.32114L88.6369 7.21199L88.541 7.1473L84.8329 4.64411H89.4284H89.5349L89.57 4.54362L91 0.454409Z" fill="#FCFF5C" stroke="#E4E74F" stroke-width="0.3"/>
<path id="Star 5" d="M63 0.454409L64.43 4.54362L64.4651 4.64411H64.5716H69.1671L65.459 7.1473L65.3631 7.21199L65.4013 7.32114L66.8236 11.3884L63.0839 8.8639L63 8.80724L62.9161 8.8639L59.1764 11.3884L60.5987 7.32114L60.6369 7.21199L60.541 7.1473L56.8329 4.64411H61.4284H61.5349L61.57 4.54362L63 0.454409Z" fill="#FCFF5C" stroke="#E4E74F" stroke-width="0.3"/>
<path id="Star 6" d="M35 0.454409L36.43 4.54362L36.4651 4.64411H36.5716H41.1671L37.459 7.1473L37.3631 7.21199L37.4013 7.32114L38.8236 11.3884L35.0839 8.8639L35 8.80724L34.9161 8.8639L31.1764 11.3884L32.5987 7.32114L32.6369 7.21199L32.541 7.1473L28.8329 4.64411H33.4284H33.5349L33.57 4.54362L35 0.454409Z" fill="#FCFF5C" stroke="#E4E74F" stroke-width="0.3"/>
</g>
</svg>
