<svg width="16" height="15" viewBox="0 0 16 15" fill="none" xmlns="http://www.w3.org/2000/svg">
<path id="Vector" d="M3.21778 6.32549C4.49778 8.62345 6.56 10.4992 9.07556 11.6766L11.0311 9.89017C11.2711 9.67093 11.6267 9.59785 11.9378 9.69529C12.9333 9.99573 14.0089 10.1581 15.1111 10.1581C15.6 10.1581 16 10.5235 16 10.9701V13.804C16 14.2506 15.6 14.616 15.1111 14.616C6.76444 14.616 0 8.43669 0 0.812001C0 0.3654 0.4 0 0.888889 0H4C4.48889 0 4.88889 0.3654 4.88889 0.812001C4.88889 1.827 5.06667 2.8014 5.39556 3.71084C5.49333 3.99504 5.42222 4.31172 5.17333 4.53908L3.21778 6.32549Z" fill="#AF6343"/>
</svg>
